STARTFONT 2.1
COMMENT Exported by Fony v1.4.7
FONT robotoR24
SIZE 39 96 96
FONTBOUNDINGBOX 31 38 0 -8
STARTPROPERTIES 6
COPYRIGHT "Copyright 2011 Google Inc. All Rights Reserved."
RESOLUTION_X 96
RESOLUTION_Y 96
FONT_ASCENT 31
FONT_DESCENT 8
DEFAULT_CHAR 0
ENDPROPERTIES
CHARS 256
STARTCHAR 000
ENCODING 0
SWIDTH 72 0
DWIDTH 1 0
BBX 0 0 0 0
BITMAP
ENDCHAR
STARTCHAR 001
ENCODING 1
SWIDTH 72 0
DWIDTH 1 0
BBX 0 0 0 0
BITMAP
ENDCHAR
STARTCHAR 002
ENCODING 2
SWIDTH 72 0
DWIDTH 1 0
BBX 0 0 0 0
BITMAP
ENDCHAR
STARTCHAR 003
ENCODING 3
SWIDTH 72 0
DWIDTH 1 0
BBX 0 0 0 0
BITMAP
ENDCHAR
STARTCHAR 004
ENCODING 4
SWIDTH 72 0
DWIDTH 1 0
BBX 0 0 0 0
BITMAP
ENDCHAR
STARTCHAR 005
ENCODING 5
SWIDTH 72 0
DWIDTH 1 0
BBX 0 0 0 0
BITMAP
ENDCHAR
STARTCHAR 006
ENCODING 6
SWIDTH 72 0
DWIDTH 1 0
BBX 0 0 0 0
BITMAP
ENDCHAR
STARTCHAR 007
ENCODING 7
SWIDTH 72 0
DWIDTH 1 0
BBX 0 0 0 0
BITMAP
ENDCHAR
STARTCHAR 008
ENCODING 8
SWIDTH 72 0
DWIDTH 1 0
BBX 0 0 0 0
BITMAP
ENDCHAR
STARTCHAR 009
ENCODING 9
SWIDTH 72 0
DWIDTH 1 0
BBX 0 0 0 0
BITMAP
ENDCHAR
STARTCHAR 010
ENCODING 10
SWIDTH 72 0
DWIDTH 1 0
BBX 0 0 0 0
BITMAP
ENDCHAR
STARTCHAR 011
ENCODING 11
SWIDTH 72 0
DWIDTH 1 0
BBX 0 0 0 0
BITMAP
ENDCHAR
STARTCHAR 012
ENCODING 12
SWIDTH 72 0
DWIDTH 1 0
BBX 0 0 0 0
BITMAP
ENDCHAR
STARTCHAR 013
ENCODING 13
SWIDTH 576 0
DWIDTH 8 0
BBX 0 0 0 0
BITMAP
ENDCHAR
STARTCHAR 014
ENCODING 14
SWIDTH 72 0
DWIDTH 1 0
BBX 0 0 0 0
BITMAP
ENDCHAR
STARTCHAR 015
ENCODING 15
SWIDTH 72 0
DWIDTH 1 0
BBX 0 0 0 0
BITMAP
ENDCHAR
STARTCHAR 016
ENCODING 16
SWIDTH 72 0
DWIDTH 1 0
BBX 0 0 0 0
BITMAP
ENDCHAR
STARTCHAR 017
ENCODING 17
SWIDTH 72 0
DWIDTH 1 0
BBX 0 0 0 0
BITMAP
ENDCHAR
STARTCHAR 018
ENCODING 18
SWIDTH 72 0
DWIDTH 1 0
BBX 0 0 0 0
BITMAP
ENDCHAR
STARTCHAR 019
ENCODING 19
SWIDTH 72 0
DWIDTH 1 0
BBX 0 0 0 0
BITMAP
ENDCHAR
STARTCHAR 020
ENCODING 20
SWIDTH 72 0
DWIDTH 1 0
BBX 0 0 0 0
BITMAP
ENDCHAR
STARTCHAR 021
ENCODING 21
SWIDTH 72 0
DWIDTH 1 0
BBX 0 0 0 0
BITMAP
ENDCHAR
STARTCHAR 022
ENCODING 22
SWIDTH 72 0
DWIDTH 1 0
BBX 0 0 0 0
BITMAP
ENDCHAR
STARTCHAR 023
ENCODING 23
SWIDTH 72 0
DWIDTH 1 0
BBX 0 0 0 0
BITMAP
ENDCHAR
STARTCHAR 024
ENCODING 24
SWIDTH 72 0
DWIDTH 1 0
BBX 0 0 0 0
BITMAP
ENDCHAR
STARTCHAR 025
ENCODING 25
SWIDTH 72 0
DWIDTH 1 0
BBX 0 0 0 0
BITMAP
ENDCHAR
STARTCHAR 026
ENCODING 26
SWIDTH 72 0
DWIDTH 1 0
BBX 0 0 0 0
BITMAP
ENDCHAR
STARTCHAR 027
ENCODING 27
SWIDTH 72 0
DWIDTH 1 0
BBX 0 0 0 0
BITMAP
ENDCHAR
STARTCHAR 028
ENCODING 28
SWIDTH 72 0
DWIDTH 1 0
BBX 0 0 0 0
BITMAP
ENDCHAR
STARTCHAR 029
ENCODING 29
SWIDTH 72 0
DWIDTH 1 0
BBX 0 0 0 0
BITMAP
ENDCHAR
STARTCHAR 030
ENCODING 30
SWIDTH 72 0
DWIDTH 1 0
BBX 0 0 0 0
BITMAP
ENDCHAR
STARTCHAR 031
ENCODING 31
SWIDTH 72 0
DWIDTH 1 0
BBX 0 0 0 0
BITMAP
ENDCHAR
STARTCHAR 032
ENCODING 32
SWIDTH 576 0
DWIDTH 8 0
BBX 0 0 0 0
BITMAP
ENDCHAR
STARTCHAR 033
ENCODING 33
SWIDTH 576 0
DWIDTH 8 0
BBX 3 24 3 0
BITMAP
E0
E0
E0
E0
E0
E0
E0
E0
E0
E0
E0
E0
E0
E0
E0
E0
E0
00
00
00
00
E0
E0
E0
ENDCHAR
STARTCHAR 034
ENCODING 34
SWIDTH 792 0
DWIDTH 11 0
BBX 7 8 2 17
BITMAP
C6
C6
C6
C6
C6
C6
C6
C6
ENDCHAR
STARTCHAR 035
ENCODING 35
SWIDTH 1440 0
DWIDTH 20 0
BBX 18 24 2 0
BITMAP
018300
018300
018300
030600
030600
030600
030600
7FFFC0
7FFFC0
060C00
060C00
060C00
0C1800
0C1800
0C1800
FFFF80
FFFF80
183000
183000
183000
183000
306000
306000
306000
ENDCHAR
STARTCHAR 036
ENCODING 36
SWIDTH 1368 0
DWIDTH 19 0
BBX 15 30 2 -3
BITMAP
0380
0380
0380
0FE0
1FF0
3FF8
783C
701C
700E
700E
700E
7800
3C00
3F00
1FE0
07F8
00FC
003C
001E
000E
E00E
E00E
F01E
783C
7FFC
3FF8
0FE0
0380
0380
0380
ENDCHAR
STARTCHAR 037
ENCODING 37
SWIDTH 1728 0
DWIDTH 24 0
BBX 20 24 2 0
BITMAP
3E0000
7F0000
E38000
C18300
C18300
C18600
C18600
C18C00
E39800
7F1800
3E3000
003000
006000
00C7C0
00CFE0
019C70
019830
031830
061830
061830
0C1830
0C1C70
000FE0
0007C0
ENDCHAR
STARTCHAR 038
ENCODING 38
SWIDTH 1512 0
DWIDTH 21 0
BBX 18 24 2 0
BITMAP
07C000
1FF000
1FF000
3C7800
383800
383800
383800
387000
3CF000
1DE000
1FC000
0F8000
1F8000
3FC380
79E380
70F380
E07F00
E03F00
E01F00
F01E00
783F00
7FFF80
3FF3C0
0FC1C0
ENDCHAR
STARTCHAR 039
ENCODING 39
SWIDTH 432 0
DWIDTH 6 0
BBX 2 8 2 17
BITMAP
C0
C0
C0
C0
C0
C0
C0
C0
ENDCHAR
STARTCHAR 040
ENCODING 40
SWIDTH 792 0
DWIDTH 11 0
BBX 9 32 2 -7
BITMAP
0380
0700
0E00
0C00
1C00
1800
3800
3000
7000
7000
7000
E000
E000
E000
E000
E000
E000
E000
E000
E000
E000
7000
7000
7000
3000
3800
1800
1C00
0C00
0E00
0700
0380
ENDCHAR
STARTCHAR 041
ENCODING 41
SWIDTH 792 0
DWIDTH 11 0
BBX 9 32 0 -7
BITMAP
E000
7000
3800
1800
1C00
0C00
0E00
0600
0700
0700
0700
0380
0380
0380
0380
0380
0380
0380
0380
0380
0380
0700
0700
0700
0600
0E00
0C00
1C00
1800
3800
7000
E000
ENDCHAR
STARTCHAR 042
ENCODING 42
SWIDTH 1008 0
DWIDTH 14 0
BBX 14 13 0 11
BITMAP
0300
0300
0300
0300
6318
FB7C
3FF0
0FC0
0780
0FC0
1CE0
3870
1860
ENDCHAR
STARTCHAR 043
ENCODING 43
SWIDTH 1368 0
DWIDTH 19 0
BBX 15 17 1 3
BITMAP
0380
0380
0380
0380
0380
0380
0380
FFFE
FFFE
FFFE
0380
0380
0380
0380
0380
0380
0380
ENDCHAR
STARTCHAR 044
ENCODING 44
SWIDTH 432 0
DWIDTH 6 0
BBX 5 8 0 -5
BITMAP
38
38
38
38
38
70
F0
60
ENDCHAR
STARTCHAR 045
ENCODING 45
SWIDTH 648 0
DWIDTH 9 0
BBX 7 3 1 8
BITMAP
FE
FE
FE
ENDCHAR
STARTCHAR 046
ENCODING 46
SWIDTH 576 0
DWIDTH 8 0
BBX 4 4 2 0
BITMAP
60
F0
F0
60
ENDCHAR
STARTCHAR 047
ENCODING 47
SWIDTH 1008 0
DWIDTH 14 0
BBX 12 26 1 -2
BITMAP
0070
0070
00E0
00E0
00E0
01C0
01C0
01C0
0380
0380
0700
0700
0700
0E00
0E00
0E00
1C00
1C00
3800
3800
3800
7000
7000
7000
E000
E000
ENDCHAR
STARTCHAR 048
ENCODING 48
SWIDTH 1296 0
DWIDTH 18 0
BBX 15 24 2 0
BITMAP
07C0
1FF0
3FF8
783C
701C
701C
E00E
E00E
E00E
E00E
E00E
E00E
E00E
E00E
E00E
E00E
E00E
E00E
701C
701C
783C
3FF8
1FF0
07C0
ENDCHAR
STARTCHAR 049
ENCODING 49
SWIDTH 1296 0
DWIDTH 18 0
BBX 9 24 4 0
BITMAP
0380
0F80
3F80
FF80
F380
C380
0380
0380
0380
0380
0380
0380
0380
0380
0380
0380
0380
0380
0380
0380
0380
0380
0380
0380
ENDCHAR
STARTCHAR 050
ENCODING 50
SWIDTH 1296 0
DWIDTH 18 0
BBX 15 24 2 0
BITMAP
0780
1FE0
3FF0
7878
7038
E01C
E01C
001C
001C
0038
0038
0070
00F0
01E0
03C0
0780
0F00
1E00
3C00
7800
F000
FFFE
FFFE
FFFE
ENDCHAR
STARTCHAR 051
ENCODING 51
SWIDTH 1296 0
DWIDTH 18 0
BBX 15 24 2 0
BITMAP
07C0
1FF0
3FF8
783C
701C
E00E
E00E
000E
001C
003C
0FF8
0FE0
0FF8
003C
001C
000E
000E
E00E
E00E
701C
783C
3FF8
1FF0
07C0
ENDCHAR
STARTCHAR 052
ENCODING 52
SWIDTH 1296 0
DWIDTH 18 0
BBX 16 24 1 0
BITMAP
00F8
00F8
01F8
01F8
03B8
03B8
0738
0738
0E38
0E38
1C38
1C38
3838
3838
7038
7038
FFFF
FFFF
FFFF
0038
0038
0038
0038
0038
ENDCHAR
STARTCHAR 053
ENCODING 53
SWIDTH 1296 0
DWIDTH 18 0
BBX 15 24 2 0
BITMAP
3FFE
3FFE
3FFE
3800
3800
3800
7000
7000
77C0
7FF0
7FF8
7C3C
101C
000E
000E
000E
000E
E00E
E00E
701C
783C
3FF8
1FF0
07C0
ENDCHAR
STARTCHAR 054
ENCODING 54
SWIDTH 1296 0
DWIDTH 18 0
BBX 15 24 2 0
BITMAP
01F0
07F0
0FF0
1F00
3C00
3800
7000
7000
E3C0
EFF0
FFF8
FC3C
F01C
F00E
E00E
E00E
E00E
E00E
E00E
701C
783C
3FF8
1FF0
07C0
ENDCHAR
STARTCHAR 055
ENCODING 55
SWIDTH 1296 0
DWIDTH 18 0
BBX 16 24 1 0
BITMAP
FFFF
FFFF
FFFF
0007
000E
000E
001C
001C
0038
0038
0070
0070
00E0
00E0
01C0
01C0
0380
0380
0700
0700
0E00
0E00
1C00
1C00
ENDCHAR
STARTCHAR 056
ENCODING 56
SWIDTH 1296 0
DWIDTH 18 0
BBX 15 24 2 0
BITMAP
07C0
1FF0
3FF8
783C
701C
E00E
E00E
E00E
701C
783C
3FF8
0FE0
3FF8
783C
701C
E00E
E00E
E00E
E00E
701C
783C
3FF8
1FF0
07C0
ENDCHAR
STARTCHAR 057
ENCODING 57
SWIDTH 1296 0
DWIDTH 18 0
BBX 15 24 2 0
BITMAP
07C0
1FF0
3FF8
783C
701C
E00E
E00E
E00E
E00E
E00E
E01E
701E
787E
3FFE
1FEE
078E
001C
001C
0038
0078
01F0
1FE0
1FC0
1F00
ENDCHAR
STARTCHAR 058
ENCODING 58
SWIDTH 576 0
DWIDTH 8 0
BBX 4 18 2 0
BITMAP
60
F0
F0
60
00
00
00
00
00
00
00
00
00
00
60
F0
F0
60
ENDCHAR
STARTCHAR 059
ENCODING 59
SWIDTH 504 0
DWIDTH 7 0
BBX 5 23 0 -5
BITMAP
30
78
78
30
00
00
00
00
00
00
00
00
00
00
00
38
38
38
38
38
70
F0
60
ENDCHAR
STARTCHAR 060
ENCODING 60
SWIDTH 1224 0
DWIDTH 17 0
BBX 13 15 1 3
BITMAP
0008
0038
00F8
03E0
0F80
3E00
F800
E000
F800
3E00
0F80
03E0
00F8
0038
0008
ENDCHAR
STARTCHAR 061
ENCODING 61
SWIDTH 1296 0
DWIDTH 18 0
BBX 14 10 2 6
BITMAP
FFFC
FFFC
FFFC
0000
0000
0000
0000
FFFC
FFFC
FFFC
ENDCHAR
STARTCHAR 062
ENCODING 62
SWIDTH 1224 0
DWIDTH 17 0
BBX 13 15 3 3
BITMAP
8000
E000
F800
3E00
0F80
03E0
00F8
0038
00F8
03E0
0F80
3E00
F800
E000
8000
ENDCHAR
STARTCHAR 063
ENCODING 63
SWIDTH 1152 0
DWIDTH 16 0
BBX 13 24 1 0
BITMAP
0F80
3FE0
7FF0
7070
E038
E038
0038
0038
0038
0070
00F0
01E0
03C0
0380
0700
0700
0700
0700
0000
0000
0000
0700
0700
0700
ENDCHAR
STARTCHAR 064
ENCODING 64
SWIDTH 2160 0
DWIDTH 30 0
BBX 26 30 2 -7
BITMAP
007FC000
01FFF000
03C07800
07001C00
0E000E00
1C000700
38000300
300F8180
603FC180
6070C0C0
6060C0C0
C0E0C0C0
C0C0C0C0
C1C0C0C0
C180C0C0
C180C0C0
C180C0C0
C181C0C0
C181C180
C1C3C380
C0C7C700
60FEFE00
60787C00
30000000
38000000
1C000000
0E000000
0780C000
03FFC000
00FF0000
ENDCHAR
STARTCHAR 065
ENCODING 65
SWIDTH 1512 0
DWIDTH 21 0
BBX 20 24 1 0
BITMAP
00F000
00F000
00F000
01F800
01F800
019800
039C00
039C00
070E00
070E00
070E00
0E0700
0E0700
0E0700
1C0380
1FFF80
3FFFC0
3FFFC0
3801C0
7801E0
7000E0
7000E0
E00070
E00070
ENDCHAR
STARTCHAR 066
ENCODING 66
SWIDTH 1512 0
DWIDTH 21 0
BBX 16 24 3 0
BITMAP
FFE0
FFF8
FFFC
E01C
E00E
E00E
E00E
E00E
E01C
E03C
FFF8
FFF0
FFF8
E03C
E00E
E00E
E007
E007
E00F
E00E
E03E
FFFC
FFF8
FFE0
ENDCHAR
STARTCHAR 067
ENCODING 67
SWIDTH 1512 0
DWIDTH 21 0
BBX 18 24 2 0
BITMAP
03F000
0FFC00
1FFE00
3E0F00
380780
700380
7001C0
E001C0
E00000
E00000
E00000
E00000
E00000
E00000
E00000
E00000
E001C0
7001C0
700380
380780
3C0F00
1FFE00
0FFC00
03F000
ENDCHAR
STARTCHAR 068
ENCODING 68
SWIDTH 1584 0
DWIDTH 22 0
BBX 17 24 3 0
BITMAP
FFC000
FFF000
FFF800
E07C00
E01E00
E00E00
E00700
E00700
E00700
E00380
E00380
E00380
E00380
E00380
E00380
E00700
E00700
E00700
E00F00
E01E00
E07C00
FFF800
FFF000
FFC000
ENDCHAR
STARTCHAR 069
ENCODING 69
SWIDTH 1368 0
DWIDTH 19 0
BBX 15 24 3 0
BITMAP
FFFC
FFFC
FFFC
E000
E000
E000
E000
E000
E000
E000
FFF8
FFF8
FFF8
E000
E000
E000
E000
E000
E000
E000
E000
FFFE
FFFE
FFFE
ENDCHAR
STARTCHAR 070
ENCODING 70
SWIDTH 1296 0
DWIDTH 18 0
BBX 14 24 3 0
BITMAP
FFFC
FFFC
FFFC
E000
E000
E000
E000
E000
E000
E000
E000
FFF8
FFF8
FFF8
E000
E000
E000
E000
E000
E000
E000
E000
E000
E000
ENDCHAR
STARTCHAR 071
ENCODING 71
SWIDTH 1584 0
DWIDTH 22 0
BBX 18 24 2 0
BITMAP
01F000
07FC00
1FFF00
3E0F80
380380
7001C0
7001C0
E00000
E00000
E00000
E00000
E00000
E03FC0
E03FC0
E03FC0
E001C0
E001C0
7001C0
7001C0
3801C0
3E03C0
1FFF80
07FF00
01FC00
ENDCHAR
STARTCHAR 072
ENCODING 72
SWIDTH 1656 0
DWIDTH 23 0
BBX 18 24 3 0
BITMAP
E001C0
E001C0
E001C0
E001C0
E001C0
E001C0
E001C0
E001C0
E001C0
E001C0
FFFFC0
FFFFC0
FFFFC0
E001C0
E001C0
E001C0
E001C0
E001C0
E001C0
E001C0
E001C0
E001C0
E001C0
E001C0
ENDCHAR
STARTCHAR 073
ENCODING 73
SWIDTH 648 0
DWIDTH 9 0
BBX 3 24 3 0
BITMAP
E0
E0
E0
E0
E0
E0
E0
E0
E0
E0
E0
E0
E0
E0
E0
E0
E0
E0
E0
E0
E0
E0
E0
E0
ENDCHAR
STARTCHAR 074
ENCODING 74
SWIDTH 1296 0
DWIDTH 18 0
BBX 15 24 1 0
BITMAP
000E
000E
000E
000E
000E
000E
000E
000E
000E
000E
000E
000E
000E
000E
000E
000E
000E
E00E
E00E
E01E
703C
7FF8
3FF0
0FC0
ENDCHAR
STARTCHAR 075
ENCODING 75
SWIDTH 1512 0
DWIDTH 21 0
BBX 18 24 3 0
BITMAP
E00780
E00F00
E01E00
E03C00
E07800
E0F000
E1E000
E3C000
E78000
EF0000
FE0000
FF0000
FF8000
F3C000
E1E000
E0E000
E0F000
E07800
E03C00
E01C00
E01E00
E00F00
E00780
E003C0
ENDCHAR
STARTCHAR 076
ENCODING 76
SWIDTH 1296 0
DWIDTH 18 0
BBX 14 24 3 0
BITMAP
E000
E000
E000
E000
E000
E000
E000
E000
E000
E000
E000
E000
E000
E000
E000
E000
E000
E000
E000
E000
E000
FFFC
FFFC
FFFC
ENDCHAR
STARTCHAR 077
ENCODING 77
SWIDTH 2088 0
DWIDTH 29 0
BBX 23 24 3 0
BITMAP
F0001E
F0001E
F8003E
F8003E
FC007E
FC007E
FC007E
EE00EE
EE00EE
E701CE
E701CE
E701CE
E3838E
E3838E
E1C70E
E1C70E
E1C70E
E0EE0E
E0EE0E
E07C0E
E07C0E
E07C0E
E0380E
E0380E
ENDCHAR
STARTCHAR 078
ENCODING 78
SWIDTH 1728 0
DWIDTH 24 0
BBX 18 24 3 0
BITMAP
F001C0
F001C0
F801C0
F801C0
FC01C0
FE01C0
EE01C0
EF01C0
E781C0
E381C0
E3C1C0
E1E1C0
E0E1C0
E0F1C0
E071C0
E039C0
E03DC0
E01DC0
E01FC0
E00FC0
E007C0
E007C0
E003C0
E001C0
ENDCHAR
STARTCHAR 079
ENCODING 79
SWIDTH 1656 0
DWIDTH 23 0
BBX 19 24 2 0
BITMAP
01F000
07FC00
1FFF00
3E0F80
380380
7001C0
7001C0
E000E0
E000E0
E000E0
E000E0
E000E0
E000E0
E000E0
E000E0
E000E0
E000E0
7001C0
7001C0
380380
3E0F80
1FFF00
07FE00
01F000
ENDCHAR
STARTCHAR 080
ENCODING 80
SWIDTH 1512 0
DWIDTH 21 0
BBX 17 24 3 0
BITMAP
FFF000
FFFC00
FFFE00
E01F00
E00700
E00700
E00380
E00380
E00380
E00700
E00700
E01F00
FFFE00
FFFC00
FFF000
E00000
E00000
E00000
E00000
E00000
E00000
E00000
E00000
E00000
ENDCHAR
STARTCHAR 081
ENCODING 81
SWIDTH 1656 0
DWIDTH 23 0
BBX 19 28 2 -4
BITMAP
01F000
07FC00
1FFF00
3E0F80
380380
7001C0
7001C0
E000E0
E000E0
E000E0
E000E0
E000E0
E000E0
E000E0
E000E0
E000E0
E000E0
7001C0
7001C0
380380
3E0F80
1FFF00
07FE00
01FF00
000780
0003C0
0001C0
000080
ENDCHAR
STARTCHAR 082
ENCODING 82
SWIDTH 1440 0
DWIDTH 20 0
BBX 16 24 3 0
BITMAP
FFC0
FFF0
FFF8
E03C
E01C
E00E
E00E
E00E
E00E
E00E
E01C
E03C
FFF8
FFF0
FFF0
E070
E038
E038
E01C
E01C
E00E
E00E
E007
E007
ENDCHAR
STARTCHAR 083
ENCODING 83
SWIDTH 1440 0
DWIDTH 20 0
BBX 16 24 2 0
BITMAP
07E0
1FF8
3FFC
781E
700E
E007
E007
E000
7000
7C00
3F80
0FE0
03F8
007C
001E
000E
0007
E007
E007
700E
781E
3FFC
1FF8
07E0
ENDCHAR
STARTCHAR 084
ENCODING 84
SWIDTH 1440 0
DWIDTH 20 0
BBX 18 24 1 0
BITMAP
FFFFC0
FFFFC0
FFFFC0
01C000
01C000
01C000
01C000
01C000
01C000
01C000
01C000
01C000
01C000
01C000
01C000
01C000
01C000
01C000
01C000
01C000
01C000
01C000
01C000
01C000
ENDCHAR
STARTCHAR 085
ENCODING 85
SWIDTH 1512 0
DWIDTH 21 0
BBX 17 24 2 0
BITMAP
E00380
E00380
E00380
E00380
E00380
E00380
E00380
E00380
E00380
E00380
E00380
E00380
E00380
E00380
E00380
E00380
E00380
E00380
E00380
700700
780F00
3FFE00
1FFC00
07F000
ENDCHAR
STARTCHAR 086
ENCODING 86
SWIDTH 1512 0
DWIDTH 21 0
BBX 19 24 1 0
BITMAP
E000E0
E000E0
E000E0
7001C0
7001C0
7001C0
380380
380380
1C0780
1C0700
1C0700
0E0E00
0E0E00
0E0E00
071C00
071C00
071C00
03B800
03B800
01B800
01F000
01F000
00E000
00E000
ENDCHAR
STARTCHAR 087
ENCODING 87
SWIDTH 2088 0
DWIDTH 29 0
BBX 27 24 1 0
BITMAP
E00E00E0
E00E00E0
E00E00E0
701F01C0
701F01C0
701F01C0
701F01C0
383B8380
383B8380
383B8380
1C71C700
1C71C700
1C71C700
1C71C700
0EE0EE00
0EE0EE00
0EE0EE00
06E0EC00
07C07C00
07C07C00
07C07C00
03803800
03803800
03803800
ENDCHAR
STARTCHAR 088
ENCODING 88
SWIDTH 1512 0
DWIDTH 21 0
BBX 19 24 1 0
BITMAP
F001E0
7803C0
380780
3C0700
1C0F00
0E0E00
0F1E00
073C00
07B800
03F800
03F800
01F000
01F000
03F800
03F800
07B800
071C00
0F1E00
1E0E00
1C0F00
3C0780
780380
7803C0
F001E0
ENDCHAR
STARTCHAR 089
ENCODING 89
SWIDTH 1440 0
DWIDTH 20 0
BBX 17 24 1 0
BITMAP
E00380
E00380
700700
700700
380E00
380E00
1C1C00
1C1C00
0E3800
0E3800
077000
077000
03E000
03E000
01C000
01C000
01C000
01C000
01C000
01C000
01C000
01C000
01C000
01C000
ENDCHAR
STARTCHAR 090
ENCODING 90
SWIDTH 1440 0
DWIDTH 20 0
BBX 17 24 1 0
BITMAP
7FFF80
7FFF80
7FFF80
000700
000700
000E00
001C00
003800
003800
007000
00E000
00E000
01C000
038000
070000
070000
0E0000
1C0000
380000
380000
700000
FFFF80
FFFF80
FFFF80
ENDCHAR
STARTCHAR 091
ENCODING 91
SWIDTH 648 0
DWIDTH 9 0
BBX 6 32 2 -5
BITMAP
FC
FC
FC
E0
E0
E0
E0
E0
E0
E0
E0
E0
E0
E0
E0
E0
E0
E0
E0
E0
E0
E0
E0
E0
E0
E0
E0
E0
E0
FC
FC
FC
ENDCHAR
STARTCHAR 092
ENCODING 92
SWIDTH 1008 0
DWIDTH 14 0
BBX 12 26 1 -2
BITMAP
E000
E000
7000
7000
7000
3800
3800
3800
1C00
1C00
0E00
0E00
0E00
0700
0700
0700
0380
0380
01C0
01C0
01C0
00E0
00E0
00E0
0070
0070
ENDCHAR
STARTCHAR 093
ENCODING 93
SWIDTH 648 0
DWIDTH 9 0
BBX 6 32 0 -5
BITMAP
FC
FC
FC
1C
1C
1C
1C
1C
1C
1C
1C
1C
1C
1C
1C
1C
1C
1C
1C
1C
1C
1C
1C
1C
1C
1C
1C
1C
1C
FC
FC
FC
ENDCHAR
STARTCHAR 094
ENCODING 94
SWIDTH 1008 0
DWIDTH 14 0
BBX 12 12 1 12
BITMAP
0600
0600
0F00
0F00
1F80
1F80
39C0
39C0
70E0
70E0
E070
E070
ENDCHAR
STARTCHAR 095
ENCODING 95
SWIDTH 1080 0
DWIDTH 15 0
BBX 15 3 0 -3
BITMAP
FFFE
FFFE
FFFE
ENDCHAR
STARTCHAR 096
ENCODING 96
SWIDTH 720 0
DWIDTH 10 0
BBX 7 5 1 20
BITMAP
F0
70
38
1C
0E
ENDCHAR
STARTCHAR 097
ENCODING 97
SWIDTH 1296 0
DWIDTH 18 0
BBX 14 18 2 0
BITMAP
0FC0
3FF0
7FF8
F038
E01C
001C
001C
0FFC
3FFC
7FFC
701C
E01C
E01C
E03C
F07C
7FFC
3FDC
0F1C
ENDCHAR
STARTCHAR 098
ENCODING 98
SWIDTH 1368 0
DWIDTH 19 0
BBX 15 25 2 0
BITMAP
E000
E000
E000
E000
E000
E000
E000
E7C0
FFF0
FFF8
F07C
E01C
E01C
E00E
E00E
E00E
E00E
E00E
E00E
E01C
F01C
F87C
FFF8
FFF0
EFC0
ENDCHAR
STARTCHAR 099
ENCODING 99
SWIDTH 1224 0
DWIDTH 17 0
BBX 14 18 1 0
BITMAP
07C0
1FF0
3FF8
7C38
701C
701C
E000
E000
E000
E000
E000
E000
701C
701C
7C38
3FF8
1FF0
07C0
ENDCHAR
STARTCHAR 100
ENCODING 100
SWIDTH 1368 0
DWIDTH 19 0
BBX 15 25 1 0
BITMAP
000E
000E
000E
000E
000E
000E
000E
07CE
1FFE
3FFE
7C1E
700E
700E
E00E
E00E
E00E
E00E
E00E
E00E
700E
701E
7C3E
3FFE
1FFE
07EE
ENDCHAR
STARTCHAR 101
ENCODING 101
SWIDTH 1224 0
DWIDTH 17 0
BBX 15 18 1 0
BITMAP
07C0
1FF0
3FF8
7C7C
701C
701C
E00E
FFFE
FFFE
FFFE
E000
E000
7000
700C
7C1E
3FFC
1FF8
07E0
ENDCHAR
STARTCHAR 102
ENCODING 102
SWIDTH 792 0
DWIDTH 11 0
BBX 10 25 1 0
BITMAP
07C0
0FC0
1FC0
1C00
3800
3800
3800
FF80
FF80
FF80
3800
3800
3800
3800
3800
3800
3800
3800
3800
3800
3800
3800
3800
3800
3800
ENDCHAR
STARTCHAR 103
ENCODING 103
SWIDTH 1368 0
DWIDTH 19 0
BBX 15 25 2 -7
BITMAP
0F8E
3FEE
3FFE
783E
F01E
E00E
E00E
E00E
E00E
E00E
E00E
E00E
E00E
701E
783E
3FFE
1FFE
0FCE
000E
001C
201C
707C
7FF8
3FF0
0FC0
ENDCHAR
STARTCHAR 104
ENCODING 104
SWIDTH 1296 0
DWIDTH 18 0
BBX 14 25 2 0
BITMAP
E000
E000
E000
E000
E000
E000
E000
E3E0
EFF0
FFF8
F838
F01C
E01C
E01C
E01C
E01C
E01C
E01C
E01C
E01C
E01C
E01C
E01C
E01C
E01C
ENDCHAR
STARTCHAR 105
ENCODING 105
SWIDTH 576 0
DWIDTH 8 0
BBX 3 24 3 0
BITMAP
E0
E0
E0
00
00
00
E0
E0
E0
E0
E0
E0
E0
E0
E0
E0
E0
E0
E0
E0
E0
E0
E0
E0
ENDCHAR
STARTCHAR 106
ENCODING 106
SWIDTH 576 0
DWIDTH 8 0
BBX 5 31 0 -7
BITMAP
38
38
38
00
00
00
38
38
38
38
38
38
38
38
38
38
38
38
38
38
38
38
38
38
38
38
38
38
F8
F0
E0
ENDCHAR
STARTCHAR 107
ENCODING 107
SWIDTH 1224 0
DWIDTH 17 0
BBX 15 25 2 0
BITMAP
E000
E000
E000
E000
E000
E000
E000
E03C
E078
E0F0
E1E0
E3C0
E780
EF00
FE00
FE00
FF00
F780
E3C0
E1C0
E0E0
E0F0
E078
E03C
E01E
ENDCHAR
STARTCHAR 108
ENCODING 108
SWIDTH 576 0
DWIDTH 8 0
BBX 3 25 3 0
BITMAP
E0
E0
E0
E0
E0
E0
E0
E0
E0
E0
E0
E0
E0
E0
E0
E0
E0
E0
E0
E0
E0
E0
E0
E0
E0
ENDCHAR
STARTCHAR 109
ENCODING 109
SWIDTH 2088 0
DWIDTH 29 0
BBX 25 18 2 0
BITMAP
E3E07C00
EFF1FE00
FFFBFF00
F87F0F00
F03E0780
E01C0380
E01C0380
E01C0380
E01C0380
E01C0380
E01C0380
E01C0380
E01C0380
E01C0380
E01C0380
E01C0380
E01C0380
E01C0380
ENDCHAR
STARTCHAR 110
ENCODING 110
SWIDTH 1296 0
DWIDTH 18 0
BBX 14 18 2 0
BITMAP
E3E0
EFF0
FFF8
F878
F03C
E01C
E01C
E01C
E01C
E01C
E01C
E01C
E01C
E01C
E01C
E01C
E01C
E01C
ENDCHAR
STARTCHAR 111
ENCODING 111
SWIDTH 1368 0
DWIDTH 19 0
BBX 15 18 2 0
BITMAP
07C0
1FF0
3FF8
783C
701C
E00E
E00E
E00E
E00E
E00E
E00E
E00E
E00E
701C
783C
3FF8
1FF0
07C0
ENDCHAR
STARTCHAR 112
ENCODING 112
SWIDTH 1368 0
DWIDTH 19 0
BBX 15 25 2 -7
BITMAP
E3C0
EFF0
FFF8
F83C
F01C
E00E
E00E
E00E
E00E
E00E
E00E
E00E
E00E
F01C
F83C
FFF8
EFF0
E3C0
E000
E000
E000
E000
E000
E000
E000
ENDCHAR
STARTCHAR 113
ENCODING 113
SWIDTH 1296 0
DWIDTH 18 0
BBX 15 25 1 -7
BITMAP
078E
1FEE
3FFE
783E
701E
E00E
E00E
E00E
E00E
E00E
E00E
E00E
E00E
701E
783E
3FFE
1FEE
078E
000E
000E
000E
000E
000E
000E
000E
ENDCHAR
STARTCHAR 114
ENCODING 114
SWIDTH 792 0
DWIDTH 11 0
BBX 9 18 2 0
BITMAP
E780
EF80
FF80
FC00
F000
E000
E000
E000
E000
E000
E000
E000
E000
E000
E000
E000
E000
E000
ENDCHAR
STARTCHAR 115
ENCODING 115
SWIDTH 1224 0
DWIDTH 17 0
BBX 13 18 2 0
BITMAP
0FC0
3FE0
7FF0
7078
E038
E000
F800
7F00
3FE0
0FF0
00F8
0038
E038
E038
F078
7FF0
3FF0
1FC0
ENDCHAR
STARTCHAR 116
ENCODING 116
SWIDTH 792 0
DWIDTH 11 0
BBX 10 22 0 0
BITMAP
1C00
1C00
1C00
1C00
FFC0
FFC0
FFC0
1C00
1C00
1C00
1C00
1C00
1C00
1C00
1C00
1C00
1C00
1C00
1E00
0FC0
0FC0
03C0
ENDCHAR
STARTCHAR 117
ENCODING 117
SWIDTH 1296 0
DWIDTH 18 0
BBX 14 18 2 0
BITMAP
E01C
E01C
E01C
E01C
E01C
E01C
E01C
E01C
E01C
E01C
E01C
E01C
E01C
F03C
707C
7FFC
3FDC
0F1C
ENDCHAR
STARTCHAR 118
ENCODING 118
SWIDTH 1152 0
DWIDTH 16 0
BBX 14 18 1 0
BITMAP
E01C
E01C
E01C
7038
7038
7038
3870
3870
1CE0
1CE0
1CE0
0FC0
0FC0
0FC0
0780
0780
0300
0300
ENDCHAR
STARTCHAR 119
ENCODING 119
SWIDTH 1800 0
DWIDTH 25 0
BBX 23 18 1 0
BITMAP
E0380E
E0380E
E0380E
E07C0E
707C1C
70FE1C
70EE1C
38EE38
39C738
39C738
1DC770
1D8370
1F83F0
0F83E0
0F01E0
0F01E0
0600C0
0600C0
ENDCHAR
STARTCHAR 120
ENCODING 120
SWIDTH 1152 0
DWIDTH 16 0
BBX 14 18 1 0
BITMAP
E01C
F03C
7038
3870
3CF0
1CE0
0FC0
0FC0
0780
0780
0FC0
0FC0
1CE0
3CF0
3870
7038
F03C
E01C
ENDCHAR
STARTCHAR 121
ENCODING 121
SWIDTH 1152 0
DWIDTH 16 0
BBX 14 25 1 -7
BITMAP
E01C
E01C
F03C
7038
7038
3878
3870
3870
1CF0
1CE0
1CE0
0FE0
0FC0
0FC0
0780
0780
0780
0300
0700
0700
0600
1E00
7C00
7C00
7000
ENDCHAR
STARTCHAR 122
ENCODING 122
SWIDTH 1152 0
DWIDTH 16 0
BBX 14 18 1 0
BITMAP
7FFC
7FFC
7FFC
0038
0070
00E0
01E0
01C0
0380
0700
0F00
1E00
1C00
3800
7000
FFFC
FFFC
FFFC
ENDCHAR
STARTCHAR 123
ENCODING 123
SWIDTH 792 0
DWIDTH 11 0
BBX 10 31 1 -6
BITMAP
03C0
0700
0E00
0E00
0E00
1C00
1C00
1C00
1C00
1C00
1C00
1C00
1C00
3800
F000
F000
3800
1C00
1C00
1C00
1C00
1C00
1C00
1C00
1C00
0E00
0E00
0E00
0700
03C0
0080
ENDCHAR
STARTCHAR 124
ENCODING 124
SWIDTH 576 0
DWIDTH 8 0
BBX 2 28 3 -4
BITMAP
C0
C0
C0
C0
C0
C0
C0
C0
C0
C0
C0
C0
C0
C0
C0
C0
C0
C0
C0
C0
C0
C0
C0
C0
C0
C0
C0
C0
ENDCHAR
STARTCHAR 125
ENCODING 125
SWIDTH 792 0
DWIDTH 11 0
BBX 10 31 0 -6
BITMAP
F000
3800
1C00
1C00
1C00
0E00
0E00
0E00
0E00
0E00
0E00
0E00
0E00
0700
03C0
03C0
0700
0E00
0E00
0E00
0E00
0E00
0E00
0E00
0E00
1C00
1C00
1C00
3800
F000
4000
ENDCHAR
STARTCHAR 126
ENCODING 126
SWIDTH 1584 0
DWIDTH 22 0
BBX 18 7 2 6
BITMAP
1E0000
3F81C0
7FC1C0
F1E3C0
E0FF80
E07F00
001E00
ENDCHAR
STARTCHAR 127
ENCODING 127
SWIDTH 72 0
DWIDTH 1 0
BBX 0 0 0 0
BITMAP
ENDCHAR
STARTCHAR 128
ENCODING 128
SWIDTH 1296 0
DWIDTH 18 0
BBX 7 3 6 8
BITMAP
FE
FE
FE
ENDCHAR
STARTCHAR 129
ENCODING 129
SWIDTH 72 0
DWIDTH 1 0
BBX 0 0 0 0
BITMAP
ENDCHAR
STARTCHAR 130
ENCODING 130
SWIDTH 72 0
DWIDTH 1 0
BBX 0 0 0 0
BITMAP
ENDCHAR
STARTCHAR 131
ENCODING 131
SWIDTH 72 0
DWIDTH 1 0
BBX 0 0 0 0
BITMAP
ENDCHAR
STARTCHAR 132
ENCODING 132
SWIDTH 72 0
DWIDTH 1 0
BBX 0 0 0 0
BITMAP
ENDCHAR
STARTCHAR 133
ENCODING 133
SWIDTH 72 0
DWIDTH 1 0
BBX 0 0 0 0
BITMAP
ENDCHAR
STARTCHAR 134
ENCODING 134
SWIDTH 72 0
DWIDTH 1 0
BBX 0 0 0 0
BITMAP
ENDCHAR
STARTCHAR 135
ENCODING 135
SWIDTH 72 0
DWIDTH 1 0
BBX 0 0 0 0
BITMAP
ENDCHAR
STARTCHAR 136
ENCODING 136
SWIDTH 72 0
DWIDTH 1 0
BBX 0 0 0 0
BITMAP
ENDCHAR
STARTCHAR 137
ENCODING 137
SWIDTH 72 0
DWIDTH 1 0
BBX 0 0 0 0
BITMAP
ENDCHAR
STARTCHAR 138
ENCODING 138
SWIDTH 72 0
DWIDTH 1 0
BBX 0 0 0 0
BITMAP
ENDCHAR
STARTCHAR 139
ENCODING 139
SWIDTH 72 0
DWIDTH 1 0
BBX 0 0 0 0
BITMAP
ENDCHAR
STARTCHAR 140
ENCODING 140
SWIDTH 72 0
DWIDTH 1 0
BBX 0 0 0 0
BITMAP
ENDCHAR
STARTCHAR 141
ENCODING 141
SWIDTH 72 0
DWIDTH 1 0
BBX 0 0 0 0
BITMAP
ENDCHAR
STARTCHAR 142
ENCODING 142
SWIDTH 72 0
DWIDTH 1 0
BBX 0 0 0 0
BITMAP
ENDCHAR
STARTCHAR 143
ENCODING 143
SWIDTH 72 0
DWIDTH 1 0
BBX 0 0 0 0
BITMAP
ENDCHAR
STARTCHAR 144
ENCODING 144
SWIDTH 72 0
DWIDTH 1 0
BBX 0 0 0 0
BITMAP
ENDCHAR
STARTCHAR 145
ENCODING 145
SWIDTH 72 0
DWIDTH 1 0
BBX 0 0 0 0
BITMAP
ENDCHAR
STARTCHAR 146
ENCODING 146
SWIDTH 72 0
DWIDTH 1 0
BBX 0 0 0 0
BITMAP
ENDCHAR
STARTCHAR 147
ENCODING 147
SWIDTH 72 0
DWIDTH 1 0
BBX 0 0 0 0
BITMAP
ENDCHAR
STARTCHAR 148
ENCODING 148
SWIDTH 72 0
DWIDTH 1 0
BBX 0 0 0 0
BITMAP
ENDCHAR
STARTCHAR 149
ENCODING 149
SWIDTH 72 0
DWIDTH 1 0
BBX 0 0 0 0
BITMAP
ENDCHAR
STARTCHAR 150
ENCODING 150
SWIDTH 72 0
DWIDTH 1 0
BBX 0 0 0 0
BITMAP
ENDCHAR
STARTCHAR 151
ENCODING 151
SWIDTH 72 0
DWIDTH 1 0
BBX 0 0 0 0
BITMAP
ENDCHAR
STARTCHAR 152
ENCODING 152
SWIDTH 72 0
DWIDTH 1 0
BBX 0 0 0 0
BITMAP
ENDCHAR
STARTCHAR 153
ENCODING 153
SWIDTH 72 0
DWIDTH 1 0
BBX 0 0 0 0
BITMAP
ENDCHAR
STARTCHAR 154
ENCODING 154
SWIDTH 72 0
DWIDTH 1 0
BBX 0 0 0 0
BITMAP
ENDCHAR
STARTCHAR 155
ENCODING 155
SWIDTH 72 0
DWIDTH 1 0
BBX 0 0 0 0
BITMAP
ENDCHAR
STARTCHAR 156
ENCODING 156
SWIDTH 72 0
DWIDTH 1 0
BBX 0 0 0 0
BITMAP
ENDCHAR
STARTCHAR 157
ENCODING 157
SWIDTH 72 0
DWIDTH 1 0
BBX 0 0 0 0
BITMAP
ENDCHAR
STARTCHAR 158
ENCODING 158
SWIDTH 72 0
DWIDTH 1 0
BBX 0 0 0 0
BITMAP
ENDCHAR
STARTCHAR 159
ENCODING 159
SWIDTH 72 0
DWIDTH 1 0
BBX 0 0 0 0
BITMAP
ENDCHAR
STARTCHAR 160
ENCODING 160
SWIDTH 576 0
DWIDTH 8 0
BBX 0 0 0 0
BITMAP
ENDCHAR
STARTCHAR 161
ENCODING 161
SWIDTH 576 0
DWIDTH 8 0
BBX 3 23 3 -6
BITMAP
E0
E0
E0
00
00
00
E0
E0
E0
E0
E0
E0
E0
E0
E0
E0
E0
E0
E0
E0
E0
E0
E0
ENDCHAR
STARTCHAR 162
ENCODING 162
SWIDTH 1296 0
DWIDTH 18 0
BBX 14 26 2 -4
BITMAP
0380
0380
0380
0380
0FE0
1FF0
3FF8
783C
F01C
E01C
E000
E000
E000
E000
E000
E000
E01C
F01C
783C
3FF8
1FF0
0FE0
0380
0380
0380
0380
ENDCHAR
STARTCHAR 163
ENCODING 163
SWIDTH 1368 0
DWIDTH 19 0
BBX 17 24 1 0
BITMAP
01F800
07FE00
0FFE00
1F0F00
1E0700
1C0780
1C0000
1C0000
1C0000
1C0000
FFE000
FFE000
FFE000
1C0000
1C0000
1C0000
1C0000
1C0000
1C0000
1C0000
3C0000
FFFF80
FFFF80
FFFF80
ENDCHAR
STARTCHAR 164
ENCODING 164
SWIDTH 1728 0
DWIDTH 24 0
BBX 20 21 2 0
BITMAP
000040
61F860
F7FEF0
7FFFF0
3E07E0
3C03C0
7801E0
7000E0
7000E0
600070
E00070
E00070
600070
7000E0
7000E0
7801E0
3C03C0
7F07E0
FFFFF0
F7FE70
61F820
ENDCHAR
STARTCHAR 165
ENCODING 165
SWIDTH 1224 0
DWIDTH 17 0
BBX 17 24 0 0
BITMAP
F00780
700700
780F00
380E00
3C1E00
1C1C00
1E1C00
0E3800
0E3800
077000
077000
03E000
3FFE00
3FFE00
01C000
01C000
01C000
3FFE00
3FFE00
01C000
01C000
01C000
01C000
01C000
ENDCHAR
STARTCHAR 166
ENCODING 166
SWIDTH 576 0
DWIDTH 8 0
BBX 3 28 2 -4
BITMAP
E0
E0
E0
E0
E0
E0
E0
E0
E0
E0
E0
E0
E0
00
00
00
E0
E0
E0
E0
E0
E0
E0
E0
E0
E0
E0
E0
ENDCHAR
STARTCHAR 167
ENCODING 167
SWIDTH 1440 0
DWIDTH 20 0
BBX 17 32 1 -8
BITMAP
03F000
0FFC00
1FFE00
3C0F00
380700
700380
700380
700000
380000
3E0000
1FC000
3FF000
7FFC00
703E00
E00F00
E00700
E00380
700380
7E0380
3FC700
0FFF00
03FE00
003F00
000F00
000780
700380
700380
380700
3C0F00
1FFE00
0FFC00
03F000
ENDCHAR
STARTCHAR 168
ENCODING 168
SWIDTH 1008 0
DWIDTH 14 0
BBX 10 3 2 20
BITMAP
E1C0
E1C0
E1C0
ENDCHAR
STARTCHAR 169
ENCODING 169
SWIDTH 1872 0
DWIDTH 26 0
BBX 23 24 1 0
BITMAP
007E00
03FFC0
0781E0
0E0070
1C0038
387C1C
30FF0C
61C38E
618386
638186
430006
C30006
430006
430006
638186
618386
61C38E
30FF0C
387E1C
1C0038
0E0070
0781E0
03FF80
007E00
ENDCHAR
STARTCHAR 170
ENCODING 170
SWIDTH 1080 0
DWIDTH 15 0
BBX 10 13 2 11
BITMAP
1F00
3F80
71C0
60C0
00C0
3FC0
7FC0
E0C0
C0C0
C0C0
E3C0
7FC0
3EC0
ENDCHAR
STARTCHAR 171
ENCODING 171
SWIDTH 1080 0
DWIDTH 15 0
BBX 12 13 2 2
BITMAP
0630
0C60
18C0
31C0
7380
6300
E700
6300
7380
31C0
18C0
0C60
0630
ENDCHAR
STARTCHAR 172
ENCODING 172
SWIDTH 1296 0
DWIDTH 18 0
BBX 13 7 2 6
BITMAP
FFF8
FFF8
FFF8
0038
0038
0038
0038
ENDCHAR
STARTCHAR 173
ENCODING 173
SWIDTH 648 0
DWIDTH 9 0
BBX 7 3 1 8
BITMAP
FE
FE
FE
ENDCHAR
STARTCHAR 174
ENCODING 174
SWIDTH 1872 0
DWIDTH 26 0
BBX 23 24 1 0
BITMAP
007E00
03FFC0
0781E0
0E0070
1C0038
39FE1C
31FF0C
61C38E
61C186
61C186
41C386
C1FF06
C1FF06
41C306
61C386
61C186
61C18E
31C18C
39C19C
1C0038
0E0070
0781E0
03FF80
00FE00
ENDCHAR
STARTCHAR 175
ENCODING 175
SWIDTH 1080 0
DWIDTH 15 0
BBX 11 3 2 20
BITMAP
FFE0
FFE0
FFE0
ENDCHAR
STARTCHAR 176
ENCODING 176
SWIDTH 864 0
DWIDTH 12 0
BBX 8 8 2 16
BITMAP
3C
7E
E7
C3
C3
E7
7E
3C
ENDCHAR
STARTCHAR 177
ENCODING 177
SWIDTH 1296 0
DWIDTH 18 0
BBX 15 20 1 0
BITMAP
0380
0380
0380
0380
0380
0380
FFFE
FFFE
FFFE
0380
0380
0380
0380
0380
0380
0000
0000
FFFE
FFFE
FFFE
ENDCHAR
STARTCHAR 178
ENCODING 178
SWIDTH 864 0
DWIDTH 12 0
BBX 10 13 1 11
BITMAP
3F00
7F80
E1C0
C0C0
01C0
0380
0700
0E00
1C00
3800
7000
FFC0
FFC0
ENDCHAR
STARTCHAR 179
ENCODING 179
SWIDTH 864 0
DWIDTH 12 0
BBX 10 13 1 11
BITMAP
3F00
7F80
F3C0
E1C0
0380
1F00
1F00
0380
01C0
E1C0
F380
7F80
3E00
ENDCHAR
STARTCHAR 180
ENCODING 180
SWIDTH 720 0
DWIDTH 10 0
BBX 7 5 2 20
BITMAP
1E
1C
38
70
E0
ENDCHAR
STARTCHAR 181
ENCODING 181
SWIDTH 1368 0
DWIDTH 19 0
BBX 13 25 3 -7
BITMAP
E038
E038
E038
E038
E038
E038
E038
E038
E038
E038
E038
E038
E038
E038
F078
FDF8
FFF8
EFB8
E000
E000
E000
E000
E000
E000
E000
ENDCHAR
STARTCHAR 182
ENCODING 182
SWIDTH 1152 0
DWIDTH 16 0
BBX 12 24 1 0
BITMAP
07F0
1FF0
3FF0
7FF0
7FF0
FFF0
FFF0
FFF0
FFF0
FFF0
FFF0
7FF0
7FF0
3FF0
0FF0
0070
0070
0070
0070
0070
0070
0070
0070
0070
ENDCHAR
STARTCHAR 183
ENCODING 183
SWIDTH 648 0
DWIDTH 9 0
BBX 4 4 2 10
BITMAP
60
F0
F0
60
ENDCHAR
STARTCHAR 184
ENCODING 184
SWIDTH 576 0
DWIDTH 8 0
BBX 5 7 2 -7
BITMAP
E0
F0
78
38
38
F0
E0
ENDCHAR
STARTCHAR 185
ENCODING 185
SWIDTH 864 0
DWIDTH 12 0
BBX 6 13 2 11
BITMAP
1C
7C
FC
DC
1C
1C
1C
1C
1C
1C
1C
1C
1C
ENDCHAR
STARTCHAR 186
ENCODING 186
SWIDTH 1080 0
DWIDTH 15 0
BBX 11 13 2 11
BITMAP
1F00
3F80
71C0
60C0
E0E0
E0E0
E0E0
E0E0
E0E0
60C0
71C0
3F80
1F00
ENDCHAR
STARTCHAR 187
ENCODING 187
SWIDTH 1080 0
DWIDTH 15 0
BBX 12 13 2 2
BITMAP
C600
6300
3180
38C0
1CE0
0C60
0E70
0C60
1CE0
38C0
3180
6300
C600
ENDCHAR
STARTCHAR 188
ENCODING 188
SWIDTH 1728 0
DWIDTH 24 0
BBX 22 24 1 0
BITMAP
0C0000
3C0000
FC0000
CC0080
0C01C0
0C0380
0C0300
0C0600
0C0E00
0C0C00
0C1800
0C3870
0C3070
0070F0
0061F0
00C3B0
01C330
018630
030E30
070FFC
0E0FFC
0C0030
000030
000030
ENDCHAR
STARTCHAR 189
ENCODING 189
SWIDTH 1872 0
DWIDTH 26 0
BBX 23 24 1 0
BITMAP
0C0000
3C0000
FC0000
CC0100
0C0380
0C0300
0C0600
0C0E00
0C0C00
0C1800
0C3800
0C31F0
0C63F8
00E71C
00C70C
01C00C
01801C
030038
070070
0600E0
0C01C0
040380
0007FE
0007FE
ENDCHAR
STARTCHAR 190
ENCODING 190
SWIDTH 1872 0
DWIDTH 26 0
BBX 22 24 2 0
BITMAP
3F0000
7F8000
E38000
018040
0380E0
1F01C0
1F0180
038300
018700
C1C600
E38E00
7F8C38
3E1878
0038F8
0030F8
0061B8
00E3B8
00C738
018638
038FFC
030FFC
030038
000038
000038
ENDCHAR
STARTCHAR 191
ENCODING 191
SWIDTH 1152 0
DWIDTH 16 0
BBX 13 24 1 -6
BITMAP
0700
0700
0700
0000
0000
0000
0000
0700
0700
0700
0E00
0E00
1C00
3800
7000
7000
E000
E000
E038
E038
7070
7FF0
3FE0
1F80
ENDCHAR
STARTCHAR 192
ENCODING 192
SWIDTH 1512 0
DWIDTH 21 0
BBX 20 31 1 0
BITMAP
001E00
001C00
003800
007000
00E000
000000
000000
00F000
00F000
00F000
01F800
01F800
019800
039C00
039C00
070E00
070E00
070E00
0E0700
0E0700
0E0700
1C0380
1FFF80
3FFFC0
3FFFC0
3801C0
7801E0
7000E0
7000E0
E00070
E00070
ENDCHAR
STARTCHAR 193
ENCODING 193
SWIDTH 1512 0
DWIDTH 21 0
BBX 20 31 1 0
BITMAP
078000
038000
01C000
00E000
007000
000000
000000
00F000
00F000
00F000
01F800
01F800
019800
039C00
039C00
070E00
070E00
070E00
0E0700
0E0700
0E0700
1C0380
1FFF80
3FFFC0
3FFFC0
3801C0
7801E0
7000E0
7000E0
E00070
E00070
ENDCHAR
STARTCHAR 194
ENCODING 194
SWIDTH 1512 0
DWIDTH 21 0
BBX 20 24 1 0
BITMAP
00F000
00F000
00F000
01F800
01F800
019800
039C00
039C00
070E00
070E00
070E00
0E0700
0E0700
0E0700
1C0380
1FFF80
3FFFC0
3FFFC0
3801C0
7801E0
7000E0
7000E0
E00070
E00070
ENDCHAR
STARTCHAR 195
ENCODING 195
SWIDTH 1512 0
DWIDTH 21 0
BBX 20 24 1 0
BITMAP
00F000
00F000
00F000
01F800
01F800
019800
039C00
039C00
070E00
070E00
070E00
0E0700
0E0700
0E0700
1C0380
1FFF80
3FFFC0
3FFFC0
3801C0
7801E0
7000E0
7000E0
E00070
E00070
ENDCHAR
STARTCHAR 196
ENCODING 196
SWIDTH 1512 0
DWIDTH 21 0
BBX 20 24 1 0
BITMAP
00F000
00F000
00F000
01F800
01F800
019800
039C00
039C00
070E00
070E00
070E00
0E0700
0E0700
0E0700
1C0380
1FFF80
3FFFC0
3FFFC0
3801C0
7801E0
7000E0
7000E0
E00070
E00070
ENDCHAR
STARTCHAR 197
ENCODING 197
SWIDTH 1512 0
DWIDTH 21 0
BBX 20 24 1 0
BITMAP
00F000
00F000
00F000
01F800
01F800
019800
039C00
039C00
070E00
070E00
070E00
0E0700
0E0700
0E0700
1C0380
1FFF80
3FFFC0
3FFFC0
3801C0
7801E0
7000E0
7000E0
E00070
E00070
ENDCHAR
STARTCHAR 198
ENCODING 198
SWIDTH 2232 0
DWIDTH 31 0
BBX 30 24 0 0
BITMAP
0003FFF8
0007FFF8
000FFFF8
000EE000
001CE000
001CE000
0038E000
0038E000
0070E000
00F0E000
00E0FFF0
01C0FFF0
01C0FFF0
0380E000
0780E000
07FFE000
0FFFE000
0FFFE000
1C00E000
3C00E000
3800E000
7800FFFC
7000FFFC
F000FFFC
ENDCHAR
STARTCHAR 199
ENCODING 199
SWIDTH 1512 0
DWIDTH 21 0
BBX 18 31 2 -7
BITMAP
03F800
0FFE00
1FFF00
3E0F80
780780
700380
7001C0
E001C0
E00000
E00000
E00000
E00000
E00000
E00000
E00000
E00000
E001C0
7001C0
700380
780780
3E0F80
1FFF00
0FFE00
03F000
00C000
00E000
007000
003000
007000
01F000
01C000
ENDCHAR
STARTCHAR 200
ENCODING 200
SWIDTH 1368 0
DWIDTH 19 0
BBX 15 31 3 0
BITMAP
00F0
00E0
01C0
0380
0700
0000
0000
FFFC
FFFC
FFFC
E000
E000
E000
E000
E000
E000
E000
FFF8
FFF8
FFF8
E000
E000
E000
E000
E000
E000
E000
E000
FFFE
FFFE
FFFE
ENDCHAR
STARTCHAR 201
ENCODING 201
SWIDTH 1368 0
DWIDTH 19 0
BBX 15 31 3 0
BITMAP
3C00
1C00
0E00
0700
0380
0000
0000
FFFC
FFFC
FFFC
E000
E000
E000
E000
E000
E000
E000
FFF8
FFF8
FFF8
E000
E000
E000
E000
E000
E000
E000
E000
FFFE
FFFE
FFFE
ENDCHAR
STARTCHAR 202
ENCODING 202
SWIDTH 1368 0
DWIDTH 19 0
BBX 15 24 3 0
BITMAP
FFFC
FFFC
FFFC
E000
E000
E000
E000
E000
E000
E000
FFF8
FFF8
FFF8
E000
E000
E000
E000
E000
E000
E000
E000
FFFE
FFFE
FFFE
ENDCHAR
STARTCHAR 203
ENCODING 203
SWIDTH 1368 0
DWIDTH 19 0
BBX 15 24 3 0
BITMAP
FFFC
FFFC
FFFC
E000
E000
E000
E000
E000
E000
E000
FFF8
FFF8
FFF8
E000
E000
E000
E000
E000
E000
E000
E000
FFFE
FFFE
FFFE
ENDCHAR
STARTCHAR 204
ENCODING 204
SWIDTH 648 0
DWIDTH 9 0
BBX 3 24 3 0
BITMAP
E0
E0
E0
E0
E0
E0
E0
E0
E0
E0
E0
E0
E0
E0
E0
E0
E0
E0
E0
E0
E0
E0
E0
E0
ENDCHAR
STARTCHAR 205
ENCODING 205
SWIDTH 720 0
DWIDTH 10 0
BBX 3 24 3 0
BITMAP
E0
E0
E0
E0
E0
E0
E0
E0
E0
E0
E0
E0
E0
E0
E0
E0
E0
E0
E0
E0
E0
E0
E0
E0
ENDCHAR
STARTCHAR 206
ENCODING 206
SWIDTH 648 0
DWIDTH 9 0
BBX 3 24 3 0
BITMAP
E0
E0
E0
E0
E0
E0
E0
E0
E0
E0
E0
E0
E0
E0
E0
E0
E0
E0
E0
E0
E0
E0
E0
E0
ENDCHAR
STARTCHAR 207
ENCODING 207
SWIDTH 720 0
DWIDTH 10 0
BBX 3 24 3 0
BITMAP
E0
E0
E0
E0
E0
E0
E0
E0
E0
E0
E0
E0
E0
E0
E0
E0
E0
E0
E0
E0
E0
E0
E0
E0
ENDCHAR
STARTCHAR 208
ENCODING 208
SWIDTH 1584 0
DWIDTH 22 0
BBX 20 24 0 0
BITMAP
1FF800
1FFE00
1FFF00
1C0F80
1C03C0
1C01C0
1C00E0
1C00E0
1C00E0
1C0070
1C0070
FFC070
FFC070
FFC070
1C0070
1C00E0
1C00E0
1C00E0
1C01E0
1C03C0
1C0F80
1FFF00
1FFE00
1FF800
ENDCHAR
STARTCHAR 209
ENCODING 209
SWIDTH 1728 0
DWIDTH 24 0
BBX 18 24 3 0
BITMAP
F001C0
F001C0
F801C0
F801C0
FC01C0
FE01C0
EE01C0
EF01C0
E781C0
E381C0
E3C1C0
E1E1C0
E0E1C0
E0F1C0
E071C0
E039C0
E03DC0
E01DC0
E01FC0
E00FC0
E007C0
E007C0
E003C0
E001C0
ENDCHAR
STARTCHAR 210
ENCODING 210
SWIDTH 1656 0
DWIDTH 23 0
BBX 19 24 2 0
BITMAP
01F000
07FC00
1FFF00
3E0F80
380380
7001C0
7001C0
E000E0
E000E0
E000E0
E000E0
E000E0
E000E0
E000E0
E000E0
E000E0
E000E0
7001C0
7001C0
380380
3E0F80
1FFF00
07FE00
01F000
ENDCHAR
STARTCHAR 211
ENCODING 211
SWIDTH 1656 0
DWIDTH 23 0
BBX 19 24 2 0
BITMAP
01F000
07FC00
1FFF00
3E0F80
380380
7001C0
7001C0
E000E0
E000E0
E000E0
E000E0
E000E0
E000E0
E000E0
E000E0
E000E0
E000E0
7001C0
7001C0
380380
3E0F80
1FFF00
07FE00
01F000
ENDCHAR
STARTCHAR 212
ENCODING 212
SWIDTH 1656 0
DWIDTH 23 0
BBX 19 24 2 0
BITMAP
01F000
07FC00
1FFF00
3E0F80
380380
7001C0
7001C0
E000E0
E000E0
E000E0
E000E0
E000E0
E000E0
E000E0
E000E0
E000E0
E000E0
7001C0
7001C0
380380
3E0F80
1FFF00
07FE00
01F000
ENDCHAR
STARTCHAR 213
ENCODING 213
SWIDTH 1656 0
DWIDTH 23 0
BBX 19 24 2 0
BITMAP
01F000
07FC00
1FFF00
3E0F80
380380
7001C0
7001C0
E000E0
E000E0
E000E0
E000E0
E000E0
E000E0
E000E0
E000E0
E000E0
E000E0
7001C0
7001C0
380380
3E0F80
1FFF00
07FE00
01F000
ENDCHAR
STARTCHAR 214
ENCODING 214
SWIDTH 1656 0
DWIDTH 23 0
BBX 19 24 2 0
BITMAP
01F000
07FC00
1FFF00
3E0F80
380380
7001C0
7001C0
E000E0
E000E0
E000E0
E000E0
E000E0
E000E0
E000E0
E000E0
E000E0
E000E0
7001C0
7001C0
380380
3E0F80
1FFF00
07FE00
01F000
ENDCHAR
STARTCHAR 215
ENCODING 215
SWIDTH 1296 0
DWIDTH 18 0
BBX 14 15 2 3
BITMAP
4008
E01C
F03C
7878
3CF0
1FE0
0FC0
0780
0FC0
1FE0
3CF0
7878
F03C
E01C
4008
ENDCHAR
STARTCHAR 216
ENCODING 216
SWIDTH 1656 0
DWIDTH 23 0
BBX 19 26 2 -1
BITMAP
000060
01F0E0
07FCC0
1FFF80
3E0F80
380380
7007C0
700FC0
E00CE0
E01CE0
E018E0
E030E0
E070E0
E060E0
E0C0E0
E1C0E0
E180E0
E380E0
7301C0
7601C0
3E0380
3E0F80
1FFF00
3FFE00
31F000
700000
ENDCHAR
STARTCHAR 217
ENCODING 217
SWIDTH 1512 0
DWIDTH 21 0
BBX 17 24 2 0
BITMAP
E00380
E00380
E00380
E00380
E00380
E00380
E00380
E00380
E00380
E00380
E00380
E00380
E00380
E00380
E00380
E00380
E00380
E00380
E00380
700700
780F00
3FFE00
1FFC00
07F000
ENDCHAR
STARTCHAR 218
ENCODING 218
SWIDTH 1512 0
DWIDTH 21 0
BBX 17 24 2 0
BITMAP
E00380
E00380
E00380
E00380
E00380
E00380
E00380
E00380
E00380
E00380
E00380
E00380
E00380
E00380
E00380
E00380
E00380
E00380
E00380
700700
780F00
3FFE00
1FFC00
07F000
ENDCHAR
STARTCHAR 219
ENCODING 219
SWIDTH 1512 0
DWIDTH 21 0
BBX 17 24 2 0
BITMAP
E00380
E00380
E00380
E00380
E00380
E00380
E00380
E00380
E00380
E00380
E00380
E00380
E00380
E00380
E00380
E00380
E00380
E00380
E00380
700700
780F00
3FFE00
1FFC00
07F000
ENDCHAR
STARTCHAR 220
ENCODING 220
SWIDTH 1512 0
DWIDTH 21 0
BBX 17 24 2 0
BITMAP
E00380
E00380
E00380
E00380
E00380
E00380
E00380
E00380
E00380
E00380
E00380
E00380
E00380
E00380
E00380
E00380
E00380
E00380
E00380
700700
780F00
3FFE00
1FFC00
07F000
ENDCHAR
STARTCHAR 221
ENCODING 221
SWIDTH 1440 0
DWIDTH 20 0
BBX 17 24 1 0
BITMAP
E00380
E00380
700700
700700
380E00
380E00
1C1C00
1C1C00
0E3800
0E3800
077000
077000
03E000
03E000
01C000
01C000
01C000
01C000
01C000
01C000
01C000
01C000
01C000
01C000
ENDCHAR
STARTCHAR 222
ENCODING 222
SWIDTH 1440 0
DWIDTH 20 0
BBX 15 24 3 0
BITMAP
E000
E000
E000
E000
E000
FFE0
FFF8
FFFC
E03C
E01E
E00E
E00E
E00E
E00E
E01E
E03C
FFFC
FFF8
FFE0
E000
E000
E000
E000
E000
ENDCHAR
STARTCHAR 223
ENCODING 223
SWIDTH 1440 0
DWIDTH 20 0
BBX 16 25 2 0
BITMAP
0FC0
3FE0
3FF0
7878
7038
F038
E038
E070
E070
E0E0
E0E0
E0E0
E0E0
E0F0
E078
E03C
E01E
E00F
E007
E007
E007
E70F
E7FF
E7FE
E1F8
ENDCHAR
STARTCHAR 224
ENCODING 224
SWIDTH 1296 0
DWIDTH 18 0
BBX 14 25 2 0
BITMAP
3C00
1C00
0E00
0700
0380
0000
0000
0FC0
3FF0
7FF8
F038
E01C
001C
001C
0FFC
3FFC
7FFC
701C
E01C
E01C
E03C
F07C
7FFC
3FDC
0F1C
ENDCHAR
STARTCHAR 225
ENCODING 225
SWIDTH 1296 0
DWIDTH 18 0
BBX 14 25 2 0
BITMAP
00F0
00E0
01C0
0380
0700
0000
0000
0FC0
3FF0
7FF8
F038
E01C
001C
001C
0FFC
3FFC
7FFC
701C
E01C
E01C
E03C
F07C
7FFC
3FDC
0F1C
ENDCHAR
STARTCHAR 226
ENCODING 226
SWIDTH 1296 0
DWIDTH 18 0
BBX 14 25 2 0
BITMAP
0780
0FC0
1CE0
3870
0000
0000
0000
0FC0
3FF0
7FF8
F038
E01C
001C
001C
0FFC
3FFC
7FFC
701C
E01C
E01C
E03C
F07C
7FFC
3FDC
0F1C
ENDCHAR
STARTCHAR 227
ENCODING 227
SWIDTH 1296 0
DWIDTH 18 0
BBX 14 25 2 0
BITMAP
0E18
1F38
39F0
30E0
0000
0000
0000
0FC0
3FF0
7FF8
F038
E01C
001C
001C
0FFC
3FFC
7FFC
701C
E01C
E01C
E03C
F07C
7FFC
3FDC
0F1C
ENDCHAR
STARTCHAR 228
ENCODING 228
SWIDTH 1296 0
DWIDTH 18 0
BBX 14 24 2 0
BITMAP
3870
3870
3870
0000
0000
0000
0FC0
3FF0
7FF8
F038
E01C
001C
001C
0FFC
3FFC
7FFC
701C
E01C
E01C
E03C
F07C
7FFC
3FDC
0F1C
ENDCHAR
STARTCHAR 229
ENCODING 229
SWIDTH 1296 0
DWIDTH 18 0
BBX 14 27 2 0
BITMAP
07C0
0FE0
0C60
0C60
0C60
0FE0
07C0
0000
0000
0FC0
3FF0
7FF8
F038
E01C
001C
001C
0FFC
3FFC
7FFC
701C
E01C
E01C
E03C
F07C
7FFC
3FDC
0F1C
ENDCHAR
STARTCHAR 230
ENCODING 230
SWIDTH 2016 0
DWIDTH 28 0
BBX 26 18 1 0
BITMAP
07E0FC00
1FF3FE00
3FFFFF00
783F8780
701E0380
001E01C0
001C01C0
0FFFFFC0
3FFFFFC0
7FFFFFC0
701C0000
E01C0000
E01E0000
E03E0180
707F83C0
7FFFFF80
3FC3FF00
0F00FC00
ENDCHAR
STARTCHAR 231
ENCODING 231
SWIDTH 1224 0
DWIDTH 17 0
BBX 15 25 1 -7
BITMAP
07E0
1FF8
3FFC
7C3C
701E
700E
E000
E000
E000
E000
E000
E000
700E
700E
7C3C
3FFC
1FF8
07E0
0380
03C0
00E0
0060
00E0
03C0
0380
ENDCHAR
STARTCHAR 232
ENCODING 232
SWIDTH 1224 0
DWIDTH 17 0
BBX 15 25 1 0
BITMAP
1E00
0F00
0700
0380
01C0
0000
0000
07C0
1FF0
3FF8
7C7C
701C
701C
E00E
FFFE
FFFE
FFFE
E000
E000
7000
700C
7C1E
3FFC
1FF8
07E0
ENDCHAR
STARTCHAR 233
ENCODING 233
SWIDTH 1224 0
DWIDTH 17 0
BBX 15 25 1 0
BITMAP
0078
0070
00E0
01C0
0380
0000
0000
07C0
1FF0
3FF8
7C7C
701C
701C
E00E
FFFE
FFFE
FFFE
E000
E000
7000
700C
7C1E
3FFC
1FF8
07E0
ENDCHAR
STARTCHAR 234
ENCODING 234
SWIDTH 1224 0
DWIDTH 17 0
BBX 15 25 1 0
BITMAP
03C0
07E0
0E70
1C38
0000
0000
0000
07C0
1FF0
3FF8
7C7C
701C
701C
E00E
FFFE
FFFE
FFFE
E000
E000
7000
700C
7C1E
3FFC
1FF8
07E0
ENDCHAR
STARTCHAR 235
ENCODING 235
SWIDTH 1224 0
DWIDTH 17 0
BBX 15 24 1 0
BITMAP
1C38
1C38
1C38
0000
0000
0000
07C0
1FF0
3FF8
7C7C
701C
701C
E00E
FFFE
FFFE
FFFE
E000
E000
7000
700C
7C1E
3FFC
1FF8
07E0
ENDCHAR
STARTCHAR 236
ENCODING 236
SWIDTH 576 0
DWIDTH 8 0
BBX 6 25 0 0
BITMAP
E0
F0
70
38
1C
00
00
1C
1C
1C
1C
1C
1C
1C
1C
1C
1C
1C
1C
1C
1C
1C
1C
1C
1C
ENDCHAR
STARTCHAR 237
ENCODING 237
SWIDTH 648 0
DWIDTH 9 0
BBX 7 25 2 0
BITMAP
1E
3C
38
70
E0
00
00
70
70
70
70
70
70
70
70
70
70
70
70
70
70
70
70
70
70
ENDCHAR
STARTCHAR 238
ENCODING 238
SWIDTH 648 0
DWIDTH 9 0
BBX 9 25 0 0
BITMAP
3C00
7E00
E700
C380
0000
0000
0000
1C00
1C00
1C00
1C00
1C00
1C00
1C00
1C00
1C00
1C00
1C00
1C00
1C00
1C00
1C00
1C00
1C00
1C00
ENDCHAR
STARTCHAR 239
ENCODING 239
SWIDTH 648 0
DWIDTH 9 0
BBX 9 24 0 0
BITMAP
C380
C380
C380
0000
0000
0000
1C00
1C00
1C00
1C00
1C00
1C00
1C00
1C00
1C00
1C00
1C00
1C00
1C00
1C00
1C00
1C00
1C00
1C00
ENDCHAR
STARTCHAR 240
ENCODING 240
SWIDTH 1368 0
DWIDTH 19 0
BBX 15 25 2 0
BITMAP
1800
3E08
3FBC
07F0
01E0
03F0
0F78
0438
001C
0F9C
1FFE
3FFE
783E
F00E
E00E
E00E
E00E
E00E
E00E
E01E
701C
783C
3FF8
1FF0
07C0
ENDCHAR
STARTCHAR 241
ENCODING 241
SWIDTH 1296 0
DWIDTH 18 0
BBX 14 25 2 0
BITMAP
1E18
3F38
33F0
30E0
0000
0000
0000
E3E0
EFF0
FFF8
F878
F03C
E01C
E01C
E01C
E01C
E01C
E01C
E01C
E01C
E01C
E01C
E01C
E01C
E01C
ENDCHAR
STARTCHAR 242
ENCODING 242
SWIDTH 1368 0
DWIDTH 19 0
BBX 15 25 2 0
BITMAP
3C00
1C00
0E00
0700
0380
0000
0000
07C0
1FF0
3FF8
783C
701C
E00E
E00E
E00E
E00E
E00E
E00E
E00E
E00E
701C
783C
3FF8
1FF0
07C0
ENDCHAR
STARTCHAR 243
ENCODING 243
SWIDTH 1368 0
DWIDTH 19 0
BBX 15 25 2 0
BITMAP
00F0
00E0
01C0
0380
0700
0000
0000
07C0
1FF0
3FF8
783C
701C
E00E
E00E
E00E
E00E
E00E
E00E
E00E
E00E
701C
783C
3FF8
1FF0
07C0
ENDCHAR
STARTCHAR 244
ENCODING 244
SWIDTH 1368 0
DWIDTH 19 0
BBX 15 25 2 0
BITMAP
07C0
0EC0
1CE0
3870
0000
0000
0000
07C0
1FF0
3FF8
783C
701C
E00E
E00E
E00E
E00E
E00E
E00E
E00E
E00E
701C
783C
3FF8
1FF0
07C0
ENDCHAR
STARTCHAR 245
ENCODING 245
SWIDTH 1368 0
DWIDTH 19 0
BBX 15 25 2 0
BITMAP
0E18
1F38
39F0
30E0
0000
0000
0000
07C0
1FF0
3FF8
783C
701C
E00E
E00E
E00E
E00E
E00E
E00E
E00E
E00E
701C
783C
3FF8
1FF0
07C0
ENDCHAR
STARTCHAR 246
ENCODING 246
SWIDTH 1368 0
DWIDTH 19 0
BBX 15 24 2 0
BITMAP
3870
3870
3870
0000
0000
0000
07C0
1FF0
3FF8
783C
701C
E00E
E00E
E00E
E00E
E00E
E00E
E00E
E00E
701C
783C
3FF8
1FF0
07C0
ENDCHAR
STARTCHAR 247
ENCODING 247
SWIDTH 1368 0
DWIDTH 19 0
BBX 15 15 2 4
BITMAP
0380
0380
0380
0000
0000
0000
FFFE
FFFE
FFFE
0000
0000
0000
0380
0380
0380
ENDCHAR
STARTCHAR 248
ENCODING 248
SWIDTH 1368 0
DWIDTH 19 0
BBX 15 22 2 -2
BITMAP
000C
0018
07D8
1FF0
3FF8
783C
707C
E06E
E0CE
E1CE
E18E
E30E
E30E
E60E
E60E
7C1C
7C3C
3FF8
1FF0
37C0
3000
6000
ENDCHAR
STARTCHAR 249
ENCODING 249
SWIDTH 1296 0
DWIDTH 18 0
BBX 14 25 2 0
BITMAP
3C00
1C00
0E00
0700
0380
0000
0000
E01C
E01C
E01C
E01C
E01C
E01C
E01C
E01C
E01C
E01C
E01C
E01C
E01C
F03C
707C
7FFC
3FDC
0F1C
ENDCHAR
STARTCHAR 250
ENCODING 250
SWIDTH 1296 0
DWIDTH 18 0
BBX 14 25 2 0
BITMAP
00F0
00E0
01C0
0380
0700
0000
0000
E01C
E01C
E01C
E01C
E01C
E01C
E01C
E01C
E01C
E01C
E01C
E01C
E01C
F03C
707C
7FFC
3FDC
0F1C
ENDCHAR
STARTCHAR 251
ENCODING 251
SWIDTH 1296 0
DWIDTH 18 0
BBX 14 25 2 0
BITMAP
0780
0FC0
1CE0
3870
0000
0000
0000
E01C
E01C
E01C
E01C
E01C
E01C
E01C
E01C
E01C
E01C
E01C
E01C
E01C
F03C
707C
7FFC
3FDC
0F1C
ENDCHAR
STARTCHAR 252
ENCODING 252
SWIDTH 1296 0
DWIDTH 18 0
BBX 14 24 2 0
BITMAP
3870
3870
3870
0000
0000
0000
E01C
E01C
E01C
E01C
E01C
E01C
E01C
E01C
E01C
E01C
E01C
E01C
E01C
F03C
707C
7FFC
3FDC
0F1C
ENDCHAR
STARTCHAR 253
ENCODING 253
SWIDTH 1152 0
DWIDTH 16 0
BBX 14 32 1 -7
BITMAP
00F0
00E0
01C0
0380
0700
0000
0000
E01C
E01C
F03C
7038
7038
3878
3870
3870
1CF0
1CE0
1CE0
0FE0
0FC0
0FC0
0780
0780
0780
0300
0700
0700
0600
1E00
7C00
7C00
7000
ENDCHAR
STARTCHAR 254
ENCODING 254
SWIDTH 1368 0
DWIDTH 19 0
BBX 15 32 2 -7
BITMAP
E000
E000
E000
E000
E000
E000
E000
E3E0
EFF0
FFF8
F83C
F01C
E01E
E00E
E00E
E00E
E00E
E00E
E00E
E01E
F01C
F83C
FFF8
EFF0
E3E0
E000
E000
E000
E000
E000
E000
E000
ENDCHAR
STARTCHAR 255
ENCODING 255
SWIDTH 1152 0
DWIDTH 16 0
BBX 14 31 1 -7
BITMAP
3870
3870
3870
0000
0000
0000
E01C
E01C
F03C
7038
7038
3878
3870
3870
1CF0
1CE0
1CE0
0FE0
0FC0
0FC0
0780
0780
0780
0300
0700
0700
0600
1E00
7C00
7C00
7000
ENDCHAR
ENDFONT
